<mxfile host="app.diagrams.net" modified="2023-07-21T06:32:07.832Z" agent="Mozilla/5.0 (Windows NT 10.0; Win64; x64) AppleWebKit/537.36 (KHTML, like Gecko) Chrome/114.0.0.0 Safari/537.36 Edg/114.0.1823.82" etag="LpuWAa1lgoYI7k4Mftez" version="21.6.5" type="google" pages="3">
  <diagram id="C5RBs43oDa-KdzZeNtuy" name="Flowchat Bilangan Prima">
    <mxGraphModel grid="1" page="1" gridSize="10" guides="1" tooltips="1" connect="1" arrows="1" fold="1" pageScale="1" pageWidth="827" pageHeight="1169" math="0" shadow="0">
      <root>
        <mxCell id="WIyWlLk6GJQsqaUBKTNV-0" />
        <mxCell id="WIyWlLk6GJQsqaUBKTNV-1" parent="WIyWlLk6GJQsqaUBKTNV-0" />
        <mxCell id="Nx_GAzk2grN4DeKZzoFs-3" value="" style="edgeStyle=orthogonalEdgeStyle;rounded=0;orthogonalLoop=1;jettySize=auto;html=1;" edge="1" parent="WIyWlLk6GJQsqaUBKTNV-1" source="WIyWlLk6GJQsqaUBKTNV-3" target="Nx_GAzk2grN4DeKZzoFs-0">
          <mxGeometry relative="1" as="geometry" />
        </mxCell>
        <mxCell id="WIyWlLk6GJQsqaUBKTNV-3" value="Mulai" style="rounded=1;whiteSpace=wrap;html=1;fontSize=12;glass=0;strokeWidth=1;shadow=0;" vertex="1" parent="WIyWlLk6GJQsqaUBKTNV-1">
          <mxGeometry x="335" y="70" width="120" height="40" as="geometry" />
        </mxCell>
        <mxCell id="Nx_GAzk2grN4DeKZzoFs-7" value="yes" style="edgeStyle=orthogonalEdgeStyle;rounded=0;orthogonalLoop=1;jettySize=auto;html=1;entryX=0.5;entryY=0;entryDx=0;entryDy=0;" edge="1" parent="WIyWlLk6GJQsqaUBKTNV-1" source="WIyWlLk6GJQsqaUBKTNV-10" target="Nx_GAzk2grN4DeKZzoFs-4">
          <mxGeometry relative="1" as="geometry" />
        </mxCell>
        <mxCell id="Nx_GAzk2grN4DeKZzoFs-8" style="edgeStyle=orthogonalEdgeStyle;rounded=0;orthogonalLoop=1;jettySize=auto;html=1;exitX=0;exitY=0.5;exitDx=0;exitDy=0;" edge="1" parent="WIyWlLk6GJQsqaUBKTNV-1" source="WIyWlLk6GJQsqaUBKTNV-10" target="WIyWlLk6GJQsqaUBKTNV-11">
          <mxGeometry relative="1" as="geometry" />
        </mxCell>
        <mxCell id="Nx_GAzk2grN4DeKZzoFs-9" value="no" style="edgeLabel;html=1;align=center;verticalAlign=middle;resizable=0;points=[];" connectable="0" vertex="1" parent="Nx_GAzk2grN4DeKZzoFs-8">
          <mxGeometry x="-0.1394" y="1" relative="1" as="geometry">
            <mxPoint as="offset" />
          </mxGeometry>
        </mxCell>
        <mxCell id="WIyWlLk6GJQsqaUBKTNV-10" value="Apakah n &amp;lt;=1 ?" style="rhombus;whiteSpace=wrap;html=1;shadow=0;fontFamily=Helvetica;fontSize=12;align=center;strokeWidth=1;spacing=6;spacingTop=-4;" vertex="1" parent="WIyWlLk6GJQsqaUBKTNV-1">
          <mxGeometry x="340" y="280" width="110" height="100" as="geometry" />
        </mxCell>
        <mxCell id="WIyWlLk6GJQsqaUBKTNV-11" value="Tampilkan Bilangan Prima" style="rounded=1;whiteSpace=wrap;html=1;fontSize=12;glass=0;strokeWidth=1;shadow=0;" vertex="1" parent="WIyWlLk6GJQsqaUBKTNV-1">
          <mxGeometry x="220" y="400" width="120" height="40" as="geometry" />
        </mxCell>
        <mxCell id="Nx_GAzk2grN4DeKZzoFs-1" value="" style="edgeStyle=orthogonalEdgeStyle;rounded=0;orthogonalLoop=1;jettySize=auto;html=1;" edge="1" parent="WIyWlLk6GJQsqaUBKTNV-1" source="Nx_GAzk2grN4DeKZzoFs-0" target="WIyWlLk6GJQsqaUBKTNV-10">
          <mxGeometry relative="1" as="geometry" />
        </mxCell>
        <mxCell id="Nx_GAzk2grN4DeKZzoFs-0" value="Masukan Bilangan&lt;br&gt;(n)" style="shape=parallelogram;perimeter=parallelogramPerimeter;whiteSpace=wrap;html=1;fixedSize=1;" vertex="1" parent="WIyWlLk6GJQsqaUBKTNV-1">
          <mxGeometry x="315" y="160" width="160" height="50" as="geometry" />
        </mxCell>
        <mxCell id="Nx_GAzk2grN4DeKZzoFs-4" value="Tampilkan Bilangan Prima" style="rounded=1;whiteSpace=wrap;html=1;fontSize=12;glass=0;strokeWidth=1;shadow=0;" vertex="1" parent="WIyWlLk6GJQsqaUBKTNV-1">
          <mxGeometry x="455" y="400" width="120" height="40" as="geometry" />
        </mxCell>
      </root>
    </mxGraphModel>
  </diagram>
  <diagram id="zpjSu66UpTqeGKC7brEP" name="Bilangan Kelipatan 7">
    <mxGraphModel grid="1" page="1" gridSize="10" guides="1" tooltips="1" connect="1" arrows="1" fold="1" pageScale="1" pageWidth="850" pageHeight="1100" math="0" shadow="0">
      <root>
        <mxCell id="0" />
        <mxCell id="1" parent="0" />
        <mxCell id="Rp9eVMV7RcEC15mG7SW3-6" value="" style="edgeStyle=orthogonalEdgeStyle;rounded=0;orthogonalLoop=1;jettySize=auto;html=1;" edge="1" parent="1" source="Rp9eVMV7RcEC15mG7SW3-1" target="Rp9eVMV7RcEC15mG7SW3-4">
          <mxGeometry relative="1" as="geometry" />
        </mxCell>
        <mxCell id="Rp9eVMV7RcEC15mG7SW3-1" value="Mulai" style="rounded=1;whiteSpace=wrap;html=1;fontSize=12;glass=0;strokeWidth=1;shadow=0;" vertex="1" parent="1">
          <mxGeometry x="320" y="100" width="120" height="40" as="geometry" />
        </mxCell>
        <mxCell id="Rp9eVMV7RcEC15mG7SW3-2" value="Bukan Kelipatan 7" style="rounded=1;whiteSpace=wrap;html=1;fontSize=12;glass=0;strokeWidth=1;shadow=0;" vertex="1" parent="1">
          <mxGeometry x="440" y="430" width="120" height="40" as="geometry" />
        </mxCell>
        <mxCell id="Rp9eVMV7RcEC15mG7SW3-8" style="edgeStyle=orthogonalEdgeStyle;rounded=0;orthogonalLoop=1;jettySize=auto;html=1;entryX=0.5;entryY=0;entryDx=0;entryDy=0;" edge="1" parent="1" source="Rp9eVMV7RcEC15mG7SW3-3" target="Rp9eVMV7RcEC15mG7SW3-2">
          <mxGeometry relative="1" as="geometry" />
        </mxCell>
        <mxCell id="Rp9eVMV7RcEC15mG7SW3-11" value="no" style="edgeLabel;html=1;align=center;verticalAlign=middle;resizable=0;points=[];" connectable="0" vertex="1" parent="Rp9eVMV7RcEC15mG7SW3-8">
          <mxGeometry x="-0.175" y="-3" relative="1" as="geometry">
            <mxPoint as="offset" />
          </mxGeometry>
        </mxCell>
        <mxCell id="Rp9eVMV7RcEC15mG7SW3-9" style="edgeStyle=orthogonalEdgeStyle;rounded=0;orthogonalLoop=1;jettySize=auto;html=1;exitX=0;exitY=0.5;exitDx=0;exitDy=0;entryX=0.5;entryY=0;entryDx=0;entryDy=0;" edge="1" parent="1" source="Rp9eVMV7RcEC15mG7SW3-3" target="Rp9eVMV7RcEC15mG7SW3-5">
          <mxGeometry relative="1" as="geometry" />
        </mxCell>
        <mxCell id="Rp9eVMV7RcEC15mG7SW3-10" value="yes" style="edgeLabel;html=1;align=center;verticalAlign=middle;resizable=0;points=[];" connectable="0" vertex="1" parent="Rp9eVMV7RcEC15mG7SW3-9">
          <mxGeometry x="-0.1875" y="3" relative="1" as="geometry">
            <mxPoint as="offset" />
          </mxGeometry>
        </mxCell>
        <mxCell id="Rp9eVMV7RcEC15mG7SW3-3" value="Apakah&lt;br&gt;n % 7 = 0 ?" style="rhombus;whiteSpace=wrap;html=1;" vertex="1" parent="1">
          <mxGeometry x="330" y="290" width="100" height="100" as="geometry" />
        </mxCell>
        <mxCell id="Rp9eVMV7RcEC15mG7SW3-7" value="" style="edgeStyle=orthogonalEdgeStyle;rounded=0;orthogonalLoop=1;jettySize=auto;html=1;" edge="1" parent="1" source="Rp9eVMV7RcEC15mG7SW3-4" target="Rp9eVMV7RcEC15mG7SW3-3">
          <mxGeometry relative="1" as="geometry" />
        </mxCell>
        <mxCell id="Rp9eVMV7RcEC15mG7SW3-4" value="Masukan Bilangan (n)" style="shape=parallelogram;perimeter=parallelogramPerimeter;whiteSpace=wrap;html=1;fixedSize=1;" vertex="1" parent="1">
          <mxGeometry x="305" y="190" width="150" height="60" as="geometry" />
        </mxCell>
        <mxCell id="Rp9eVMV7RcEC15mG7SW3-5" value="Kelipatan 7" style="rounded=1;whiteSpace=wrap;html=1;fontSize=12;glass=0;strokeWidth=1;shadow=0;" vertex="1" parent="1">
          <mxGeometry x="200" y="430" width="120" height="40" as="geometry" />
        </mxCell>
      </root>
    </mxGraphModel>
  </diagram>
  <diagram id="xnMx2TM89Fyv8o80u3Y1" name="Luas Trapesium">
    <mxGraphModel grid="1" page="1" gridSize="10" guides="1" tooltips="1" connect="1" arrows="1" fold="1" pageScale="1" pageWidth="850" pageHeight="1100" math="0" shadow="0">
      <root>
        <mxCell id="0" />
        <mxCell id="1" parent="0" />
        <mxCell id="XANekYiwQgxpwck0r1ci-3" value="" style="edgeStyle=orthogonalEdgeStyle;rounded=0;orthogonalLoop=1;jettySize=auto;html=1;" edge="1" parent="1" source="xO0hBXbsvLObEPZf-9cc-1" target="xO0hBXbsvLObEPZf-9cc-2">
          <mxGeometry relative="1" as="geometry" />
        </mxCell>
        <mxCell id="xO0hBXbsvLObEPZf-9cc-1" value="Mulai" style="rounded=1;whiteSpace=wrap;html=1;fontSize=12;glass=0;strokeWidth=1;shadow=0;" vertex="1" parent="1">
          <mxGeometry x="320" y="100" width="120" height="40" as="geometry" />
        </mxCell>
        <mxCell id="XANekYiwQgxpwck0r1ci-4" value="" style="edgeStyle=orthogonalEdgeStyle;rounded=0;orthogonalLoop=1;jettySize=auto;html=1;" edge="1" parent="1" source="xO0hBXbsvLObEPZf-9cc-2" target="xO0hBXbsvLObEPZf-9cc-3">
          <mxGeometry relative="1" as="geometry" />
        </mxCell>
        <mxCell id="xO0hBXbsvLObEPZf-9cc-2" value="Masukan Panjang Alas (a)" style="shape=parallelogram;perimeter=parallelogramPerimeter;whiteSpace=wrap;html=1;fixedSize=1;" vertex="1" parent="1">
          <mxGeometry x="312.5" y="170" width="135" height="60" as="geometry" />
        </mxCell>
        <mxCell id="XANekYiwQgxpwck0r1ci-5" value="" style="edgeStyle=orthogonalEdgeStyle;rounded=0;orthogonalLoop=1;jettySize=auto;html=1;" edge="1" parent="1" source="xO0hBXbsvLObEPZf-9cc-3" target="xO0hBXbsvLObEPZf-9cc-4">
          <mxGeometry relative="1" as="geometry" />
        </mxCell>
        <mxCell id="xO0hBXbsvLObEPZf-9cc-3" value="Masukan Panjang Sisi Atas (b)" style="shape=parallelogram;perimeter=parallelogramPerimeter;whiteSpace=wrap;html=1;fixedSize=1;" vertex="1" parent="1">
          <mxGeometry x="310" y="260" width="140" height="60" as="geometry" />
        </mxCell>
        <mxCell id="XANekYiwQgxpwck0r1ci-6" value="" style="edgeStyle=orthogonalEdgeStyle;rounded=0;orthogonalLoop=1;jettySize=auto;html=1;" edge="1" parent="1" source="xO0hBXbsvLObEPZf-9cc-4" target="XANekYiwQgxpwck0r1ci-1">
          <mxGeometry relative="1" as="geometry" />
        </mxCell>
        <mxCell id="xO0hBXbsvLObEPZf-9cc-4" value="Masukan Tinggi (t)" style="shape=parallelogram;perimeter=parallelogramPerimeter;whiteSpace=wrap;html=1;fixedSize=1;" vertex="1" parent="1">
          <mxGeometry x="315" y="350" width="130" height="60" as="geometry" />
        </mxCell>
        <mxCell id="XANekYiwQgxpwck0r1ci-7" value="" style="edgeStyle=orthogonalEdgeStyle;rounded=0;orthogonalLoop=1;jettySize=auto;html=1;" edge="1" parent="1" source="XANekYiwQgxpwck0r1ci-1" target="XANekYiwQgxpwck0r1ci-2">
          <mxGeometry relative="1" as="geometry" />
        </mxCell>
        <mxCell id="XANekYiwQgxpwck0r1ci-1" value="Hitung Luas = (a + b) * t / 2" style="rounded=0;whiteSpace=wrap;html=1;" vertex="1" parent="1">
          <mxGeometry x="320" y="440" width="120" height="60" as="geometry" />
        </mxCell>
        <mxCell id="XANekYiwQgxpwck0r1ci-2" value="Tampilkan Hasil" style="rounded=1;whiteSpace=wrap;html=1;fontSize=12;glass=0;strokeWidth=1;shadow=0;" vertex="1" parent="1">
          <mxGeometry x="320" y="530" width="120" height="40" as="geometry" />
        </mxCell>
      </root>
    </mxGraphModel>
  </diagram>
</mxfile>
